<?xml version="1.0" encoding="UTF-8" standalone="no"?>
<svg
   xmlns:dc="http://purl.org/dc/elements/1.1/"
   xmlns:cc="http://creativecommons.org/ns#"
   xmlns:rdf="http://www.w3.org/1999/02/22-rdf-syntax-ns#"
   xmlns:svg="http://www.w3.org/2000/svg"
   xmlns="http://www.w3.org/2000/svg"
   xmlns:sodipodi="http://sodipodi.sourceforge.net/DTD/sodipodi-0.dtd"
   xmlns:inkscape="http://www.inkscape.org/namespaces/inkscape"
   width="2.6172488mm"
   height="1.6027018mm"
   viewBox="0 0 2.6172488 1.6027018"
   version="1.1"
   id="svg8"
   inkscape:version="1.0.1 (3bc2e813f5, 2020-09-07)"
   sodipodi:docname="arrow_w.svg">
  <defs
     id="defs2" />
  <sodipodi:namedview
     id="base"
     pagecolor="#ffffff"
     bordercolor="#666666"
     borderopacity="1.0"
     inkscape:pageopacity="0.0"
     inkscape:pageshadow="2"
     inkscape:zoom="31.678384"
     inkscape:cx="7.9957673"
     inkscape:cy="4.4631812"
     inkscape:document-units="mm"
     inkscape:current-layer="layer1"
     inkscape:document-rotation="0"
     showgrid="false"
     inkscape:window-width="1346"
     inkscape:window-height="1040"
     inkscape:window-x="26"
     inkscape:window-y="0"
     inkscape:window-maximized="0" />
  <metadata
     id="metadata5">
    <rdf:RDF>
      <cc:Work
         rdf:about="">
        <dc:format>image/svg+xml</dc:format>
        <dc:type
           rdf:resource="http://purl.org/dc/dcmitype/StillImage" />
        <dc:title></dc:title>
      </cc:Work>
    </rdf:RDF>
  </metadata>
  <g
     inkscape:label="Layer 1"
     inkscape:groupmode="layer"
     id="layer1"
     transform="translate(-139.14124,-53.17758)">
    <path
       style="fill:#000000;stroke-width:0.0846667"
       d="m 139.70397,54.667399 c -0.0822,-0.0624 -0.24416,-0.184536 -0.35983,-0.271403 -0.35564,-0.267072 -0.25976,-0.504794 0.41493,-1.028738 0.13434,-0.104323 0.29626,-0.189678 0.35983,-0.189678 0.21195,0 0.11614,0.293819 -0.16104,0.493886 l -0.27371,0.197553 0.254,-0.04496 c 0.1397,-0.02473 0.60643,-0.07005 1.03717,-0.100708 0.66251,-0.04716 0.78317,-0.0363 0.78317,0.07049 0,0.131744 -0.1867,0.165452 -1.55453,0.280668 l -0.66553,0.05606 0.34742,0.222008 c 0.19108,0.122105 0.34769,0.269634 0.34803,0.327842 8e-4,0.139305 -0.34023,0.130929 -0.52991,-0.01301 z"
       id="path847" />
  </g>
</svg>
