<?xml version="1.0" encoding="UTF-8" standalone="no"?>
<svg
   xmlns:osb="http://www.openswatchbook.org/uri/2009/osb"
   xmlns:dc="http://purl.org/dc/elements/1.1/"
   xmlns:cc="http://creativecommons.org/ns#"
   xmlns:rdf="http://www.w3.org/1999/02/22-rdf-syntax-ns#"
   xmlns:svg="http://www.w3.org/2000/svg"
   xmlns="http://www.w3.org/2000/svg"
   xmlns:sodipodi="http://sodipodi.sourceforge.net/DTD/sodipodi-0.dtd"
   xmlns:inkscape="http://www.inkscape.org/namespaces/inkscape"
   inkscape:version="1.0.1 (3bc2e813f5, 2020-09-07)"
   sodipodi:docname="tech_js.svg"
   id="svg8"
   version="1.1"
   viewBox="0 0 132.29166 132.29167"
   height="500"
   width="500">
  <defs
     id="defs2">
    <rect
       x="101.79306"
       y="104.13313"
       width="109.10577"
       height="65.814476"
       id="rect2889" />
    <linearGradient
       id="linearGradient2807"
       osb:paint="solid">
      <stop
         style="stop-color:#ffffff;stop-opacity:1;"
         offset="0"
         id="stop2805" />
    </linearGradient>
  </defs>
  <sodipodi:namedview
     id="base"
     pagecolor="#ffffff"
     bordercolor="#666666"
     borderopacity="1.0"
     inkscape:pageopacity="0.0"
     inkscape:pageshadow="2"
     inkscape:zoom="0.90453125"
     inkscape:cx="248.93483"
     inkscape:cy="180.95756"
     inkscape:document-units="mm"
     inkscape:current-layer="g902"
     inkscape:document-rotation="0"
     showgrid="false"
     units="px"
     inkscape:window-width="1920"
     inkscape:window-height="1017"
     inkscape:window-x="-8"
     inkscape:window-y="-8"
     inkscape:window-maximized="1"
     inkscape:snap-global="false" />
  <metadata
     id="metadata5">
    <rdf:RDF>
      <cc:Work
         rdf:about="">
        <dc:format>image/svg+xml</dc:format>
        <dc:type
           rdf:resource="http://purl.org/dc/dcmitype/StillImage" />
        <dc:title></dc:title>
      </cc:Work>
    </rdf:RDF>
  </metadata>
  <g
     inkscape:groupmode="layer"
     id="g902"
     inkscape:label="JS group"
     style="display:inline">
    <rect
       style="display:inline;opacity:0.998235;fill:#2e2d0f;fill-opacity:1;stroke:none;stroke-width:2.852;stroke-linecap:round;stroke-linejoin:round;stroke-miterlimit:4;stroke-dasharray:none;stroke-opacity:1"
       id="rect892"
       width="132.50648"
       height="68.381889"
       x="-0.29250878"
       y="31.656113"
       inkscape:label="background bar" />
    <path
       id="path961"
       style="display:inline;opacity:0.998235;fill:#6d6d5d;fill-opacity:1;stroke:#53533e;stroke-width:4.01608;stroke-linecap:round;stroke-linejoin:round;stroke-miterlimit:4;stroke-dasharray:none;stroke-opacity:1"
       d="M 79.822141,55.252353 A 23.594491,23.594491 0 0 1 56.227633,78.846865 23.594491,23.594491 0 0 1 32.63314,55.252353 23.594491,23.594491 0 0 1 56.227633,31.657856 23.594491,23.594491 0 0 1 79.822141,55.252353 Z M 48.216195,2.5499909 V 14.834588 a 41.088657,41.088657 0 0 0 -15.162262,6.441495 l -8.841795,-8.529619 -11.023415,11.426498 8.780502,8.470401 a 41.088657,41.088657 0 0 0 -5.817654,14.074568 l -12.0513757,0.01974 0.025984,15.877004 11.8482757,-0.01931 a 41.088657,41.088657 0 0 0 6.552133,15.803762 l -8.006028,8.409134 11.498697,10.948092 7.867338,-8.26316 a 41.088657,41.088657 0 0 0 14.329609,5.882586 V 106.63294 H 64.093212 V 95.462024 a 41.088657,41.088657 0 0 0 15.964786,-6.78068 l 8.039236,7.755128 11.023446,-11.427021 -8.100567,-7.814353 a 41.088657,41.088657 0 0 0 5.778695,-14.731141 l 11.410372,-0.01858 -0.0258,-15.877004 -11.612985,0.01873 A 41.088657,41.088657 0 0 0 89.617747,30.956847 L 97.788948,22.374248 86.290247,11.426671 77.979851,20.155747 A 41.088657,41.088657 0 0 0 64.093183,14.74793 V 2.550078 Z"
       inkscape:label="big grey cog" />
    <path
       id="circle948"
       style="display:inline;opacity:0.998235;fill:#81816c;fill-opacity:1;stroke:#53533e;stroke-width:2.76665;stroke-linecap:round;stroke-linejoin:round;stroke-miterlimit:4;stroke-dasharray:none;stroke-opacity:1"
       d="M 107.41382,94.685736 A 16.25407,16.25407 0 0 1 91.159738,110.93982 16.25407,16.25407 0 0 1 74.905667,94.685736 16.25407,16.25407 0 0 1 91.159738,78.431662 16.25407,16.25407 0 0 1 107.41382,94.685736 Z M 85.640718,58.379469 v 8.462768 a 28.305671,28.305671 0 0 0 -10.44517,4.437498 l -6.091047,-5.875991 -7.593949,7.87163 6.048823,5.835196 a 28.305671,28.305671 0 0 0 -4.007739,9.695866 l -8.302103,0.0136 0.0179,10.93755 8.162189,-0.0133 a 28.305671,28.305671 0 0 0 4.513716,10.887094 l -5.515293,5.79299 7.921367,7.54206 5.419751,-5.69243 a 28.305671,28.305671 0 0 0 9.871561,4.05247 v 7.75497 h 10.937553 v -7.69556 a 28.305671,28.305671 0 0 0 10.998023,-4.67116 l 5.53817,5.34245 7.59397,-7.87199 -5.58042,-5.38325 a 28.305671,28.305671 0 0 0 3.9809,-10.148174 l 7.86052,-0.0128 -0.0178,-10.93755 -8.0001,0.0129 a 28.305671,28.305671 0 0 0 -4.7896,-10.767564 l 5.62908,-5.912489 -7.92137,-7.541705 -5.72497,6.013396 a 28.305671,28.305671 0 0 0 -9.566423,-3.725405 v -8.40301 z"
       inkscape:label="small cog" />
    <text
       xml:space="preserve"
       style="font-style:normal;font-weight:normal;font-size:42.3333px;line-height:1.25;font-family:sans-serif;display:inline;fill:#ffffff;fill-opacity:1;stroke:none;stroke-width:2;stroke-linecap:round;stroke-linejoin:round;stroke-miterlimit:4;stroke-dasharray:none;stroke-opacity:1"
       x="67.445511"
       y="80.525604"
       id="text900"
       inkscape:label="JS"><tspan
         sodipodi:role="line"
         x="67.445511"
         y="80.525604"
         style="font-style:normal;font-variant:normal;font-weight:bold;font-stretch:normal;font-size:42.3333px;font-family:Tahoma;-inkscape-font-specification:'Tahoma Bold';text-align:center;text-anchor:middle;fill:#ffffff;stroke:none;stroke-width:2;stroke-linecap:round;stroke-linejoin:round;stroke-miterlimit:4;stroke-dasharray:none;stroke-opacity:1"
         id="tspan898">JS</tspan></text>
  </g>
</svg>
